<svg xmlns="http://www.w3.org/2000/svg" viewBox="0 0 360 260" style="background:#0d1a2a;font-family:system-ui,sans-serif">
  <text x="180" y="22" font-size="11" fill="#f5c432" text-anchor="middle" font-family="monospace" font-weight="bold">3 · VERZAMELPUNT</text>
  <!-- Building behind (simplified) -->
  <rect x="130" y="40" width="100" height="100" rx="3" fill="#080f1e" stroke="#172840" stroke-width="1.5" opacity="0.7"/>
  <!-- Windows -->
  <rect x="140" y="55" width="22" height="18" rx="2" fill="#1a3555" stroke="#172840" stroke-width="1" opacity="0.7"/>
  <rect x="172" y="55" width="22" height="18" rx="2" fill="#1a3555" stroke="#172840" stroke-width="1" opacity="0.7"/>
  <rect x="204" y="55" width="22" height="18" rx="2" fill="#1a3555" stroke="#172840" stroke-width="1" opacity="0.7"/>
  <!-- Ground area -->
  <rect x="0" y="185" width="360" height="75" fill="#080f1e" stroke="#172840" stroke-width="1"/>
  <!-- Assembly point sign -->
  <rect x="155" y="145" width="50" height="44" rx="3" fill="#30d080" opacity="0.2" stroke="#30d080" stroke-width="2"/>
  <text x="180" y="162" font-size="9" fill="#30d080" text-anchor="middle" font-family="monospace">VERZA-</text>
  <text x="180" y="174" font-size="9" fill="#30d080" text-anchor="middle" font-family="monospace">MELPUNT</text>
  <!-- BHV person -->
  <circle cx="60" cy="165" r="22" fill="#d8ebff" opacity="0.12" stroke="#f5c432" stroke-width="2"/>
  <text x="60" y="153" font-size="7" fill="#f5c432" text-anchor="middle" font-family="monospace">BHV</text>
  <!-- Clipboard -->
  <rect x="40" y="180" width="40" height="50" rx="3" fill="#0a1828" stroke="#172840" stroke-width="1.5"/>
  <rect x="50" y="176" width="20" height="8" rx="2" fill="#172840"/>
  <line x1="46" y1="195" x2="74" y2="195" stroke="#6d8faa" stroke-width="1"/>
  <line x1="46" y1="203" x2="74" y2="203" stroke="#6d8faa" stroke-width="1"/>
  <line x1="46" y1="211" x2="74" y2="211" stroke="#6d8faa" stroke-width="1"/>
  <text x="58" y="222" font-size="7" fill="#30d080" text-anchor="middle" font-family="monospace">tellen</text>
  <!-- People group at assembly point -->
  <circle cx="240" cy="178" r="14" fill="#d8ebff" opacity="0.1" stroke="#d8ebff" stroke-width="1"/>
  <circle cx="270" cy="172" r="14" fill="#d8ebff" opacity="0.1" stroke="#d8ebff" stroke-width="1"/>
  <circle cx="300" cy="178" r="14" fill="#d8ebff" opacity="0.1" stroke="#d8ebff" stroke-width="1"/>
  <circle cx="255" cy="195" r="14" fill="#d8ebff" opacity="0.1" stroke="#d8ebff" stroke-width="1"/>
  <circle cx="285" cy="195" r="14" fill="#d8ebff" opacity="0.1" stroke="#d8ebff" stroke-width="1"/>
  <!-- Count speech bubble -->
  <rect x="210" y="130" width="100" height="30" rx="8" fill="#0a1828" stroke="#30d080" stroke-width="1.5"/>
  <text x="260" y="142" font-size="8" fill="#d8ebff" text-anchor="middle" font-family="monospace">Iedereen</text>
  <text x="260" y="153" font-size="8" fill="#30d080" text-anchor="middle" font-family="monospace">aanwezig ✓</text>
  <circle cx="213" cy="163" r="3" fill="#30d080" opacity="0.4"/>
</svg>
